<svg width="303" height="34" viewBox="0 0 303 34" fill="none" xmlns="http://www.w3.org/2000/svg">
<path d="M19.7372 13.7656H15.3821C15.3026 13.2022 15.1402 12.7017 14.8949 12.2642C14.6496 11.8201 14.3348 11.4422 13.9503 11.1307C13.5658 10.8191 13.1217 10.5805 12.6179 10.4148C12.1207 10.2491 11.5805 10.1662 10.9972 10.1662C9.94318 10.1662 9.0251 10.428 8.2429 10.9517C7.4607 11.4687 6.85417 12.2244 6.4233 13.2188C5.99242 14.2064 5.77699 15.4062 5.77699 16.8182C5.77699 18.2699 5.99242 19.4896 6.4233 20.4773C6.8608 21.465 7.47064 22.2107 8.25284 22.7145C9.03504 23.2183 9.93987 23.4702 10.9673 23.4702C11.544 23.4702 12.0777 23.3939 12.5682 23.2415C13.0653 23.089 13.5062 22.867 13.8906 22.5753C14.2751 22.277 14.5933 21.9157 14.8452 21.4915C15.1037 21.0672 15.2827 20.5833 15.3821 20.0398L19.7372 20.0597C19.6245 20.9943 19.3428 21.8958 18.892 22.7642C18.4479 23.6259 17.848 24.3982 17.0923 25.081C16.3433 25.7571 15.4484 26.294 14.4077 26.6918C13.3736 27.0829 12.2036 27.2784 10.8977 27.2784C9.08144 27.2784 7.45739 26.8674 6.02557 26.0455C4.60038 25.2235 3.47348 24.0336 2.64489 22.4759C1.82292 20.9181 1.41193 19.0322 1.41193 16.8182C1.41193 14.5975 1.82955 12.7083 2.66477 11.1506C3.5 9.5928 4.63352 8.40625 6.06534 7.59091C7.49716 6.76894 9.10795 6.35795 10.8977 6.35795C12.0777 6.35795 13.1714 6.52367 14.179 6.85511C15.1932 7.18655 16.0914 7.67045 16.8736 8.30682C17.6558 8.93655 18.2921 9.70881 18.7827 10.6236C19.2798 11.5384 19.598 12.5857 19.7372 13.7656ZM87.066 27V6.63636H91.3714V23.4503H100.101V27H87.066ZM131.327 13.7656H126.972C126.892 13.2022 126.73 12.7017 126.485 12.2642C126.239 11.8201 125.925 11.4422 125.54 11.1307C125.156 10.8191 124.712 10.5805 124.208 10.4148C123.711 10.2491 123.17 10.1662 122.587 10.1662C121.533 10.1662 120.615 10.428 119.833 10.9517C119.051 11.4687 118.444 12.2244 118.013 13.2188C117.582 14.2064 117.367 15.4062 117.367 16.8182C117.367 18.2699 117.582 19.4896 118.013 20.4773C118.451 21.465 119.06 22.2107 119.843 22.7145C120.625 23.2183 121.53 23.4702 122.557 23.4702C123.134 23.4702 123.667 23.3939 124.158 23.2415C124.655 23.089 125.096 22.867 125.48 22.5753C125.865 22.277 126.183 21.9157 126.435 21.4915C126.694 21.0672 126.873 20.5833 126.972 20.0398L131.327 20.0597C131.214 20.9943 130.933 21.8958 130.482 22.7642C130.038 23.6259 129.438 24.3982 128.682 25.081C127.933 25.7571 127.038 26.294 125.998 26.6918C124.963 27.0829 123.793 27.2784 122.488 27.2784C120.671 27.2784 119.047 26.8674 117.615 26.0455C116.19 25.2235 115.063 24.0336 114.235 22.4759C113.413 20.9181 113.002 19.0322 113.002 16.8182C113.002 14.5975 113.419 12.7083 114.255 11.1506C115.09 9.5928 116.223 8.40625 117.655 7.59091C119.087 6.76894 120.698 6.35795 122.488 6.35795C123.667 6.35795 124.761 6.52367 125.769 6.85511C126.783 7.18655 127.681 7.67045 128.463 8.30682C129.246 8.93655 129.882 9.70881 130.373 10.6236C130.87 11.5384 131.188 12.5857 131.327 13.7656ZM162.519 10.1861V6.63636H179.244V10.1861H173.009V27H168.754V10.1861H162.519ZM210.981 16.8182C210.981 19.0388 210.56 20.928 209.719 22.4858C208.883 24.0436 207.743 25.2334 206.298 26.0554C204.86 26.8707 203.242 27.2784 201.446 27.2784C199.636 27.2784 198.012 26.8674 196.574 26.0455C195.135 25.2235 193.998 24.0336 193.163 22.4759C192.328 20.9181 191.91 19.0322 191.91 16.8182C191.91 14.5975 192.328 12.7083 193.163 11.1506C193.998 9.5928 195.135 8.40625 196.574 7.59091C198.012 6.76894 199.636 6.35795 201.446 6.35795C203.242 6.35795 204.86 6.76894 206.298 7.59091C207.743 8.40625 208.883 9.5928 209.719 11.1506C210.56 12.7083 210.981 14.5975 210.981 16.8182ZM206.616 16.8182C206.616 15.3797 206.401 14.1667 205.97 13.179C205.546 12.1913 204.946 11.4422 204.17 10.9318C203.395 10.4214 202.487 10.1662 201.446 10.1662C200.405 10.1662 199.497 10.4214 198.721 10.9318C197.946 11.4422 197.343 12.1913 196.912 13.179C196.488 14.1667 196.275 15.3797 196.275 16.8182C196.275 18.2566 196.488 19.4697 196.912 20.4574C197.343 21.4451 197.946 22.1941 198.721 22.7045C199.497 23.215 200.405 23.4702 201.446 23.4702C202.487 23.4702 203.395 23.215 204.17 22.7045C204.946 22.1941 205.546 21.4451 205.97 20.4574C206.401 19.4697 206.616 18.2566 206.616 16.8182ZM244.084 16.8182C244.084 19.0388 243.663 20.928 242.821 22.4858C241.986 24.0436 240.846 25.2334 239.401 26.0554C237.962 26.8707 236.345 27.2784 234.548 27.2784C232.739 27.2784 231.115 26.8674 229.676 26.0455C228.238 25.2235 227.101 24.0336 226.266 22.4759C225.43 20.9181 225.013 19.0322 225.013 16.8182C225.013 14.5975 225.43 12.7083 226.266 11.1506C227.101 9.5928 228.238 8.40625 229.676 7.59091C231.115 6.76894 232.739 6.35795 234.548 6.35795C236.345 6.35795 237.962 6.76894 239.401 7.59091C240.846 8.40625 241.986 9.5928 242.821 11.1506C243.663 12.7083 244.084 14.5975 244.084 16.8182ZM239.719 16.8182C239.719 15.3797 239.503 14.1667 239.072 13.179C238.648 12.1913 238.048 11.4422 237.273 10.9318C236.497 10.4214 235.589 10.1662 234.548 10.1662C233.508 10.1662 232.599 10.4214 231.824 10.9318C231.048 11.4422 230.445 12.1913 230.014 13.179C229.59 14.1667 229.378 15.3797 229.378 16.8182C229.378 18.2566 229.59 19.4697 230.014 20.4574C230.445 21.4451 231.048 22.1941 231.824 22.7045C232.599 23.215 233.508 23.4702 234.548 23.4702C235.589 23.4702 236.497 23.215 237.273 22.7045C238.048 22.1941 238.648 21.4451 239.072 20.4574C239.503 19.4697 239.719 18.2566 239.719 16.8182ZM258.473 27V6.63636H262.778V23.4503H271.509V27H258.473ZM296.607 12.4929C296.527 11.6908 296.186 11.0677 295.582 10.6236C294.979 10.1794 294.161 9.95739 293.127 9.95739C292.424 9.95739 291.831 10.0568 291.347 10.2557C290.863 10.4479 290.492 10.7164 290.233 11.0611C289.981 11.4058 289.855 11.7969 289.855 12.2344C289.842 12.599 289.918 12.9171 290.084 13.1889C290.256 13.4607 290.492 13.696 290.79 13.8949C291.088 14.0871 291.433 14.2562 291.824 14.402C292.215 14.5412 292.633 14.6605 293.077 14.7599L294.906 15.1974C295.795 15.3963 296.61 15.6615 297.352 15.9929C298.095 16.3243 298.738 16.732 299.281 17.2159C299.825 17.6998 300.246 18.2699 300.544 18.9261C300.849 19.5824 301.005 20.3348 301.011 21.1832C301.005 22.4295 300.687 23.5099 300.057 24.4247C299.434 25.3329 298.532 26.0388 297.352 26.5426C296.179 27.0398 294.764 27.2884 293.107 27.2884C291.463 27.2884 290.031 27.0365 288.811 26.5327C287.598 26.0289 286.65 25.2831 285.967 24.2955C285.291 23.3011 284.937 22.0715 284.903 20.6065H289.07C289.116 21.2893 289.312 21.8594 289.656 22.3168C290.008 22.7675 290.475 23.1089 291.058 23.3409C291.648 23.5663 292.314 23.679 293.057 23.679C293.786 23.679 294.419 23.5729 294.956 23.3608C295.5 23.1487 295.921 22.8537 296.219 22.4759C296.517 22.098 296.666 21.6638 296.666 21.1733C296.666 20.7159 296.53 20.3314 296.259 20.0199C295.993 19.7083 295.602 19.4432 295.085 19.2244C294.575 19.0057 293.948 18.8068 293.206 18.6278L290.989 18.071C289.272 17.6534 287.916 17.0005 286.922 16.1122C285.928 15.224 285.434 14.0275 285.44 12.5227C285.434 11.2898 285.762 10.2126 286.425 9.29119C287.094 8.36979 288.012 7.65057 289.179 7.13352C290.346 6.61648 291.671 6.35795 293.156 6.35795C294.668 6.35795 295.987 6.61648 297.114 7.13352C298.247 7.65057 299.129 8.36979 299.759 9.29119C300.388 10.2126 300.713 11.2798 300.733 12.4929H296.607Z" fill="#F09520"/>
<path d="M36 21.7326L38.5386 25.5471C38.791 25.984 39.178 26.3512 39.6566 26.6078C40.1351 26.8643 40.6863 27.0001 41.2484 27H58.0978L54.6028 21.7326H36ZM65.507 20.3259L55.695 5.40156C55.4367 4.97828 55.0508 4.62416 54.5785 4.37723C54.1063 4.1303 53.5657 3.99989 53.0146 4H47.7957L62.9861 26.9795L65.3889 23.36C65.5011 23.1958 66.6287 21.8353 65.507 20.3259ZM52.1173 17.99L45.2984 7.7221L38.4796 17.99H52.1173Z" fill="#F09520"/>
</svg>
